<svg width="281" height="22" viewBox="0 0 281 22" fill="none" xmlns="http://www.w3.org/2000/svg">
<path d="M273.992 21.9384C272.385 21.9384 271.139 21.7445 269.948 21.2182C269.504 21.0243 269.421 20.8858 269.421 20.2764C269.421 18.7529 269.532 17.0909 269.56 16.6477C269.588 16.2322 269.671 15.9275 269.892 15.9275C270.142 15.9275 270.169 16.1768 270.169 16.3984C270.169 16.7585 270.28 17.3402 270.419 17.8111C271.028 19.8609 272.662 20.6088 274.38 20.6088C276.873 20.6088 278.091 18.9191 278.091 17.451C278.091 16.0937 277.676 14.8195 275.377 13.019L274.103 12.0218C271.056 9.63962 270.003 7.70062 270.003 5.45692C270.003 2.40992 272.551 0.221619 276.402 0.221619C278.202 0.221619 279.366 0.498618 280.086 0.692517C280.335 0.747918 280.474 0.831017 280.474 1.02492C280.474 1.38502 280.363 2.18832 280.363 4.34892C280.363 4.95832 280.28 5.17992 280.058 5.17992C279.864 5.17992 279.781 5.01372 279.781 4.68132C279.781 4.43202 279.643 3.57332 279.061 2.85312C278.645 2.32682 277.842 1.49582 276.042 1.49582C273.992 1.49582 272.745 2.68692 272.745 4.34892C272.745 5.62312 273.382 6.59262 275.682 8.33772L276.457 8.91942C279.809 11.4401 281 13.3514 281 15.9829C281 17.5895 280.391 19.5008 278.396 20.8027C277.011 21.6891 275.46 21.9384 273.992 21.9384Z" fill="black"/>
<path d="M258.162 8.64237V13.5176C258.162 17.0632 258.162 18.9745 258.744 19.4731C259.215 19.8886 259.935 20.0825 262.096 20.0825C263.564 20.0825 264.644 20.0548 265.337 19.3069C265.669 18.9468 266.001 18.1712 266.057 17.6449C266.084 17.3956 266.14 17.2294 266.361 17.2294C266.555 17.2294 266.583 17.3679 266.583 17.7003C266.583 18.005 266.389 20.0825 266.168 20.8858C266.001 21.4952 265.863 21.6337 264.422 21.6337C262.428 21.6337 260.988 21.5783 259.741 21.5506C258.495 21.4952 257.497 21.4675 256.362 21.4675C256.057 21.4675 255.448 21.4675 254.783 21.4952C254.146 21.4952 253.426 21.5506 252.872 21.5506C252.511 21.5506 252.318 21.4675 252.318 21.2736C252.318 21.1351 252.428 21.052 252.761 21.052C253.176 21.052 253.509 20.9966 253.758 20.9412C254.312 20.8304 254.45 20.221 254.561 19.4177C254.7 18.2543 254.7 16.066 254.7 13.5176V8.64237C254.7 4.43197 254.7 3.65637 254.644 2.76997C254.589 1.82817 254.367 1.38497 253.453 1.19107C253.232 1.13567 252.899 1.10798 252.539 1.10798C252.234 1.10798 252.068 1.05257 252.068 0.858675C252.068 0.664774 252.262 0.609375 252.678 0.609375C253.98 0.609375 255.725 0.692474 256.473 0.692474C257.137 0.692474 259.159 0.609375 260.24 0.609375C260.628 0.609375 260.821 0.664774 260.821 0.858675C260.821 1.05257 260.655 1.10798 260.323 1.10798C260.018 1.10798 259.575 1.13567 259.243 1.19107C258.495 1.32957 258.273 1.80047 258.218 2.76997C258.162 3.65637 258.162 4.43197 258.162 8.64237Z" fill="black"/>
<path d="M242.589 14.3209H236.412C236.274 14.3209 236.218 14.3763 236.163 14.5425L234.667 18.5036C234.39 19.1961 234.252 19.8609 234.252 20.1933C234.252 20.6919 234.501 21.052 235.36 21.052H235.775C236.108 21.052 236.191 21.1074 236.191 21.2736C236.191 21.4952 236.025 21.5506 235.72 21.5506C234.833 21.5506 233.642 21.4675 232.784 21.4675C232.479 21.4675 230.955 21.5506 229.515 21.5506C229.155 21.5506 228.989 21.4952 228.989 21.2736C228.989 21.1074 229.1 21.052 229.321 21.052C229.57 21.052 229.958 21.0243 230.18 20.9966C231.454 20.8304 231.98 19.8886 232.534 18.5036L239.487 1.108C239.819 0.304699 239.986 0 240.263 0C240.512 0 240.678 0.2493 240.955 0.8864C241.62 2.4099 246.052 13.7115 247.825 17.9219C248.877 20.4149 249.681 20.8027 250.262 20.9412C250.678 21.0243 251.093 21.052 251.426 21.052C251.647 21.052 251.786 21.0797 251.786 21.2736C251.786 21.4952 251.537 21.5506 250.512 21.5506C249.514 21.5506 247.492 21.5506 245.276 21.4952C244.778 21.4675 244.445 21.4675 244.445 21.2736C244.445 21.1074 244.556 21.052 244.833 21.0243C245.027 20.9689 245.221 20.7196 245.082 20.3872L242.866 14.5148C242.811 14.3763 242.728 14.3209 242.589 14.3209ZM236.966 12.9359H242.063C242.202 12.9359 242.229 12.8528 242.202 12.7697L239.709 5.9278C239.681 5.817 239.653 5.6785 239.57 5.6785C239.487 5.6785 239.432 5.817 239.404 5.9278L236.856 12.742C236.828 12.8528 236.856 12.9359 236.966 12.9359Z" fill="black"/>
<path d="M220.973 13.5176V2.16062L216.845 2.27142C215.239 2.32682 214.574 2.46532 214.158 3.07472C213.881 3.49022 213.743 3.82262 213.687 4.04422C213.632 4.26582 213.549 4.37662 213.383 4.37662C213.189 4.37662 213.133 4.23812 213.133 3.93342C213.133 3.49022 213.66 0.969519 213.715 0.747918C213.798 0.387818 213.881 0.221619 214.048 0.221619C214.269 0.221619 214.546 0.498618 215.239 0.554018C216.042 0.637118 217.095 0.692517 218.009 0.692517H228.978C229.864 0.692517 230.474 0.609419 230.889 0.554018C231.305 0.470919 231.526 0.415518 231.637 0.415518C231.831 0.415518 231.859 0.581719 231.859 0.997218C231.859 1.57892 231.776 3.49022 231.776 4.21042C231.748 4.48742 231.692 4.65362 231.526 4.65362C231.305 4.65362 231.249 4.51512 231.222 4.09962L231.194 3.79492C231.138 3.07472 230.391 2.29912 227.925 2.24372L224.435 2.16062V13.5176C224.435 16.066 224.435 18.2543 224.574 19.4454C224.657 20.221 224.823 20.8304 225.654 20.9412C226.042 20.9966 226.651 21.052 227.067 21.052C227.371 21.052 227.51 21.1351 227.51 21.2736C227.51 21.4675 227.288 21.5506 226.983 21.5506C225.155 21.5506 223.41 21.4675 222.635 21.4675C221.997 21.4675 220.252 21.5506 219.144 21.5506C218.784 21.5506 218.59 21.4675 218.59 21.2736C218.59 21.1351 218.701 21.052 219.034 21.052C219.449 21.052 219.781 20.9966 220.031 20.9412C220.585 20.8304 220.751 20.221 220.834 19.4177C220.973 18.2543 220.973 16.066 220.973 13.5176Z" fill="black"/>
<path d="M192.296 6.14939L192.6 17.7834C192.656 19.944 193.016 20.6642 193.57 20.8581C194.041 21.0243 194.567 21.052 195.01 21.052C195.315 21.052 195.481 21.1074 195.481 21.2736C195.481 21.4952 195.232 21.5506 194.844 21.5506C193.044 21.5506 191.936 21.4675 191.409 21.4675C191.16 21.4675 189.858 21.5506 188.418 21.5506C188.058 21.5506 187.808 21.5229 187.808 21.2736C187.808 21.1074 187.975 21.052 188.252 21.052C188.612 21.052 189.11 21.0243 189.498 20.9135C190.218 20.6919 190.329 19.8886 190.357 17.4787L190.606 1.08029C190.606 0.526289 190.689 0.138489 190.966 0.138489C191.271 0.138489 191.52 0.498589 191.991 0.997189C192.323 1.35729 196.534 5.87239 200.578 9.88889C202.462 11.7725 206.201 15.7613 206.672 16.2045H206.811L206.534 3.76719C206.506 2.07749 206.257 1.55119 205.592 1.27419C205.176 1.10799 204.511 1.10799 204.124 1.10799C203.791 1.10799 203.68 1.02489 203.68 0.858689C203.68 0.637089 203.985 0.609389 204.401 0.609389C205.841 0.609389 207.171 0.692488 207.752 0.692488C208.057 0.692488 209.11 0.609389 210.467 0.609389C210.827 0.609389 211.104 0.637089 211.104 0.858689C211.104 1.02489 210.938 1.10799 210.605 1.10799C210.328 1.10799 210.107 1.10799 209.774 1.19109C208.999 1.41269 208.777 1.99439 208.75 3.54559L208.445 21.0243C208.445 21.6337 208.334 21.883 208.085 21.883C207.78 21.883 207.448 21.5783 207.143 21.2736C205.398 19.6116 201.852 15.9829 198.971 13.1298C195.952 10.1382 192.877 6.67569 192.379 6.14939H192.296Z" fill="black"/>
<path d="M173.547 13.5176V8.64242C173.547 4.43202 173.547 3.65642 173.492 2.77002C173.437 1.82822 173.215 1.38502 172.301 1.19112C172.079 1.13572 171.608 1.10802 171.221 1.10802C170.916 1.10802 170.75 1.05262 170.75 0.858718C170.75 0.664817 170.944 0.609418 171.359 0.609418C172.107 0.609418 172.91 0.637117 173.603 0.637117C174.323 0.664817 174.96 0.692517 175.348 0.692517C176.234 0.692517 181.747 0.692517 182.273 0.664817C182.799 0.609418 183.242 0.554017 183.464 0.498618C183.602 0.470918 183.769 0.387817 183.907 0.387817C184.046 0.387817 184.073 0.498618 184.073 0.637117C184.073 0.831017 183.935 1.16342 183.852 2.43762C183.824 2.71462 183.769 3.93342 183.713 4.26582C183.686 4.40432 183.63 4.57052 183.436 4.57052C183.242 4.57052 183.187 4.43202 183.187 4.18272C183.187 3.98882 183.159 3.51792 183.021 3.18552C182.827 2.68692 182.55 2.35452 181.165 2.18832C180.694 2.13292 177.785 2.07752 177.231 2.07752C177.093 2.07752 177.038 2.16062 177.038 2.35452V9.36262C177.038 9.55652 177.065 9.66732 177.231 9.66732C177.841 9.66732 181.026 9.66732 181.663 9.61192C182.328 9.55652 182.744 9.47342 182.993 9.19642C183.187 8.97482 183.298 8.83632 183.436 8.83632C183.547 8.83632 183.63 8.89172 183.63 9.05792C183.63 9.22412 183.519 9.66732 183.409 11.08C183.381 11.634 183.298 12.742 183.298 12.9359C183.298 13.1575 183.298 13.4622 183.048 13.4622C182.855 13.4622 182.799 13.3514 182.799 13.2129C182.771 12.9359 182.771 12.5758 182.688 12.2157C182.55 11.6617 182.162 11.2462 181.137 11.1354C180.611 11.08 177.869 11.0523 177.204 11.0523C177.065 11.0523 177.038 11.1631 177.038 11.3293V13.5176C177.038 14.4594 177.01 17.0078 177.038 17.8111C177.093 19.7224 177.536 20.1379 180.362 20.1379C181.082 20.1379 182.245 20.1379 182.965 19.8055C183.686 19.4731 184.018 18.8914 184.212 17.7557C184.267 17.451 184.323 17.3402 184.517 17.3402C184.738 17.3402 184.738 17.5618 184.738 17.8388C184.738 18.4759 184.517 20.3595 184.378 20.9135C184.184 21.6337 183.935 21.6337 182.882 21.6337C180.805 21.6337 179.281 21.5783 178.09 21.5506C176.899 21.4952 176.04 21.4675 175.209 21.4675C174.905 21.4675 174.295 21.4675 173.63 21.4952C172.993 21.4952 172.273 21.5506 171.719 21.5506C171.359 21.5506 171.165 21.4675 171.165 21.2736C171.165 21.1351 171.276 21.052 171.608 21.052C172.024 21.052 172.356 20.9966 172.606 20.9412C173.16 20.8304 173.298 20.221 173.409 19.4177C173.547 18.2543 173.547 16.066 173.547 13.5176Z" fill="black"/>
<path d="M152.637 13.5176V8.64237C152.637 4.43197 152.637 3.65637 152.582 2.76997C152.526 1.82817 152.305 1.38497 151.391 1.19107C151.169 1.13567 150.698 1.10798 150.31 1.10798C150.006 1.10798 149.839 1.05257 149.839 0.858675C149.839 0.664774 150.033 0.609375 150.449 0.609375C151.917 0.609375 153.662 0.692474 154.244 0.692474C155.186 0.692474 157.291 0.609375 158.149 0.609375C159.895 0.609375 161.75 0.775574 163.246 1.80047C164.022 2.32677 165.13 3.73947 165.13 5.59537C165.13 7.64517 164.271 9.52877 161.473 11.8002C163.939 14.9026 165.85 17.3679 167.484 19.0853C169.036 20.6919 170.171 20.8858 170.587 20.9689C170.891 21.0243 171.141 21.052 171.362 21.052C171.584 21.052 171.695 21.1351 171.695 21.2736C171.695 21.4952 171.501 21.5506 171.168 21.5506H168.537C166.986 21.5506 166.293 21.4121 165.573 21.0243C164.382 20.3872 163.329 19.0853 161.778 16.9524C160.67 15.4289 159.396 13.5453 159.036 13.1298C158.897 12.9636 158.731 12.9359 158.537 12.9359L156.127 12.8805C155.989 12.8805 155.906 12.9359 155.906 13.1021V13.4899C155.906 16.066 155.906 18.2543 156.044 19.4177C156.127 20.221 156.294 20.8304 157.125 20.9412C157.54 20.9966 158.149 21.052 158.482 21.052C158.703 21.052 158.814 21.1351 158.814 21.2736C158.814 21.4675 158.62 21.5506 158.26 21.5506C156.654 21.5506 154.604 21.4675 154.188 21.4675C153.662 21.4675 151.917 21.5506 150.809 21.5506C150.449 21.5506 150.255 21.4675 150.255 21.2736C150.255 21.1351 150.366 21.052 150.698 21.052C151.114 21.052 151.446 20.9966 151.695 20.9412C152.249 20.8304 152.388 20.221 152.499 19.4177C152.637 18.2543 152.637 16.066 152.637 13.5176ZM155.906 2.40987V10.8307C155.906 11.1354 155.961 11.2462 156.155 11.3293C156.737 11.5232 157.568 11.6063 158.26 11.6063C159.368 11.6063 159.728 11.4955 160.227 11.1354C161.058 10.526 161.861 9.25177 161.861 6.98037C161.861 3.04697 159.257 1.91127 157.623 1.91127C156.931 1.91127 156.432 1.93897 156.155 2.02207C155.961 2.07747 155.906 2.18827 155.906 2.40987Z" fill="black"/>
<path d="M126.805 21.9384C118.855 21.9384 115.642 15.9829 115.642 11.08C115.642 6.34332 118.772 0.221619 127.082 0.221619C133.979 0.221619 138.273 4.23812 138.273 10.5814C138.273 16.9247 133.841 21.9384 126.805 21.9384ZM127.969 20.5534C129.908 20.5534 134.395 19.6116 134.395 11.6063C134.395 5.40152 130.822 1.55122 126.279 1.55122C123.093 1.55122 119.465 3.32402 119.465 10.2213C119.465 15.9829 122.65 20.5534 127.969 20.5534Z" fill="black"/>
<path d="M106.423 21.9384C102.628 21.9384 99.443 21.1074 96.9223 18.9191C94.2077 16.5369 93.4875 13.4345 93.4875 10.7476C93.4875 8.86402 94.0692 5.59542 96.7284 3.15782C98.7228 1.32962 101.354 0.221619 105.482 0.221619C107.199 0.221619 108.224 0.332419 109.498 0.498618C110.551 0.637118 111.437 0.886418 112.268 0.969519C112.573 0.997218 112.684 1.13572 112.684 1.30192C112.684 1.52352 112.6 1.85592 112.545 2.82542C112.49 3.73952 112.517 5.26302 112.462 5.81702C112.434 6.23252 112.379 6.45412 112.13 6.45412C111.908 6.45412 111.853 6.23252 111.853 5.84472C111.825 4.98602 111.465 4.01652 110.772 3.29632C109.858 2.32682 107.698 1.57892 105.149 1.57892C102.739 1.57892 101.16 2.18832 99.9416 3.29632C97.9195 5.15222 97.3932 7.78372 97.3932 10.4706C97.3932 17.0632 102.407 20.3318 106.119 20.3318C108.584 20.3318 110.08 20.0548 111.188 18.7806C111.659 18.2543 112.019 17.451 112.13 16.9524C112.213 16.5092 112.268 16.3984 112.49 16.3984C112.684 16.3984 112.739 16.5923 112.739 16.8139C112.739 17.1463 112.407 19.5562 112.13 20.498C111.991 20.9689 111.88 21.1074 111.409 21.3013C110.301 21.7445 108.196 21.9384 106.423 21.9384Z" fill="black"/>
<path d="M82.9052 21.9384C81.2986 21.9384 80.0521 21.7445 78.861 21.2182C78.4178 21.0243 78.3347 20.8858 78.3347 20.2764C78.3347 18.7529 78.4455 17.0909 78.4732 16.6477C78.5009 16.2322 78.584 15.9275 78.8056 15.9275C79.0549 15.9275 79.0826 16.1768 79.0826 16.3984C79.0826 16.7585 79.1934 17.3402 79.3319 17.8111C79.9413 19.8609 81.5756 20.6088 83.293 20.6088C85.786 20.6088 87.0048 18.9191 87.0048 17.451C87.0048 16.0937 86.5893 14.8195 84.2902 13.019L83.016 12.0218C79.969 9.63962 78.9164 7.70062 78.9164 5.45692C78.9164 2.40992 81.4648 0.221619 85.3151 0.221619C87.1156 0.221619 88.279 0.498618 88.9992 0.692517C89.2485 0.747918 89.387 0.831017 89.387 1.02492C89.387 1.38502 89.2762 2.18832 89.2762 4.34892C89.2762 4.95832 89.1931 5.17992 88.9715 5.17992C88.7776 5.17992 88.6945 5.01372 88.6945 4.68132C88.6945 4.43202 88.556 3.57332 87.9743 2.85312C87.5588 2.32682 86.7555 1.49582 84.955 1.49582C82.9052 1.49582 81.6587 2.68692 81.6587 4.34892C81.6587 5.62312 82.2958 6.59262 84.5949 8.33772L85.3705 8.91942C88.7222 11.4401 89.9133 13.3514 89.9133 15.9829C89.9133 17.5895 89.3039 19.5008 87.3095 20.8027C85.9245 21.6891 84.3733 21.9384 82.9052 21.9384Z" fill="black"/>
<path d="M68.5447 14.3209H62.3676C62.2291 14.3209 62.1737 14.3763 62.1183 14.5425L60.6225 18.5036C60.3455 19.1961 60.207 19.8609 60.207 20.1933C60.207 20.6919 60.4563 21.052 61.315 21.052H61.7305C62.0629 21.052 62.146 21.1074 62.146 21.2736C62.146 21.4952 61.9798 21.5506 61.6751 21.5506C60.7887 21.5506 59.5976 21.4675 58.7389 21.4675C58.4342 21.4675 56.9107 21.5506 55.4703 21.5506C55.1102 21.5506 54.944 21.4952 54.944 21.2736C54.944 21.1074 55.0548 21.052 55.2764 21.052C55.5257 21.052 55.9135 21.0243 56.1351 20.9966C57.4093 20.8304 57.9356 19.8886 58.4896 18.5036L65.4423 1.108C65.7747 0.304699 65.9409 0 66.2179 0C66.4672 0 66.6334 0.2493 66.9104 0.8864C67.5752 2.4099 72.0072 13.7115 73.78 17.9219C74.8326 20.4149 75.6359 20.8027 76.2176 20.9412C76.6331 21.0243 77.0486 21.052 77.381 21.052C77.6026 21.052 77.7411 21.0797 77.7411 21.2736C77.7411 21.4952 77.4918 21.5506 76.4669 21.5506C75.4697 21.5506 73.4476 21.5506 71.2316 21.4952C70.733 21.4675 70.4006 21.4675 70.4006 21.2736C70.4006 21.1074 70.5114 21.052 70.7884 21.0243C70.9823 20.9689 71.1762 20.7196 71.0377 20.3872L68.8217 14.5148C68.7663 14.3763 68.6832 14.3209 68.5447 14.3209ZM62.9216 12.9359H68.0184C68.1569 12.9359 68.1846 12.8528 68.1569 12.7697L65.6639 5.9278C65.6362 5.817 65.6085 5.6785 65.5254 5.6785C65.4423 5.6785 65.3869 5.817 65.3592 5.9278L62.8108 12.742C62.7831 12.8528 62.8108 12.9359 62.9216 12.9359Z" fill="black"/>
<path d="M47.6581 21.9384C46.0515 21.9384 44.805 21.7445 43.6139 21.2182C43.1707 21.0243 43.0876 20.8858 43.0876 20.2764C43.0876 18.7529 43.1984 17.0909 43.2261 16.6477C43.2538 16.2322 43.3369 15.9275 43.5585 15.9275C43.8078 15.9275 43.8355 16.1768 43.8355 16.3984C43.8355 16.7585 43.9463 17.3402 44.0848 17.8111C44.6942 19.8609 46.3285 20.6088 48.0459 20.6088C50.5389 20.6088 51.7577 18.9191 51.7577 17.451C51.7577 16.0937 51.3422 14.8195 49.0431 13.019L47.7689 12.0218C44.7219 9.63962 43.6693 7.70062 43.6693 5.45692C43.6693 2.40992 46.2177 0.221619 50.068 0.221619C51.8685 0.221619 53.0319 0.498618 53.7521 0.692517C54.0014 0.747918 54.1399 0.831017 54.1399 1.02492C54.1399 1.38502 54.0291 2.18832 54.0291 4.34892C54.0291 4.95832 53.946 5.17992 53.7244 5.17992C53.5305 5.17992 53.4474 5.01372 53.4474 4.68132C53.4474 4.43202 53.3089 3.57332 52.7272 2.85312C52.3117 2.32682 51.5084 1.49582 49.7079 1.49582C47.6581 1.49582 46.4116 2.68692 46.4116 4.34892C46.4116 5.62312 47.0487 6.59262 49.3478 8.33772L50.1234 8.91942C53.4751 11.4401 54.6662 13.3514 54.6662 15.9829C54.6662 17.5895 54.0568 19.5008 52.0624 20.8027C50.6774 21.6891 49.1262 21.9384 47.6581 21.9384Z" fill="black"/>
<path d="M33.2976 14.3209H27.1205C26.982 14.3209 26.9266 14.3763 26.8712 14.5425L25.3754 18.5036C25.0984 19.1961 24.9599 19.8609 24.9599 20.1933C24.9599 20.6919 25.2092 21.052 26.0679 21.052H26.4834C26.8158 21.052 26.8989 21.1074 26.8989 21.2736C26.8989 21.4952 26.7327 21.5506 26.428 21.5506C25.5416 21.5506 24.3505 21.4675 23.4918 21.4675C23.1871 21.4675 21.6636 21.5506 20.2232 21.5506C19.8631 21.5506 19.6969 21.4952 19.6969 21.2736C19.6969 21.1074 19.8077 21.052 20.0293 21.052C20.2786 21.052 20.6664 21.0243 20.888 20.9966C22.1622 20.8304 22.6885 19.8886 23.2425 18.5036L30.1952 1.108C30.5276 0.304699 30.6938 0 30.9708 0C31.2201 0 31.3863 0.2493 31.6633 0.8864C32.3281 2.4099 36.7601 13.7115 38.5329 17.9219C39.5855 20.4149 40.3888 20.8027 40.9705 20.9412C41.386 21.0243 41.8015 21.052 42.1339 21.052C42.3555 21.052 42.494 21.0797 42.494 21.2736C42.494 21.4952 42.2447 21.5506 41.2198 21.5506C40.2226 21.5506 38.2005 21.5506 35.9845 21.4952C35.4859 21.4675 35.1535 21.4675 35.1535 21.2736C35.1535 21.1074 35.2643 21.052 35.5413 21.0243C35.7352 20.9689 35.9291 20.7196 35.7906 20.3872L33.5746 14.5148C33.5192 14.3763 33.4361 14.3209 33.2976 14.3209ZM27.6745 12.9359H32.7713C32.9098 12.9359 32.9375 12.8528 32.9098 12.7697L30.4168 5.9278C30.3891 5.817 30.3614 5.6785 30.2783 5.6785C30.1952 5.6785 30.1398 5.817 30.1121 5.9278L27.5637 12.742C27.536 12.8528 27.5637 12.9359 27.6745 12.9359Z" fill="black"/>
<path d="M12.9359 21.9384C9.141 21.9384 5.9555 21.1074 3.4348 18.9191C0.720199 16.5369 0 13.4345 0 10.7476C0 8.86402 0.5817 5.59542 3.2409 3.15782C5.2353 1.32962 7.8668 0.221619 11.9941 0.221619C13.7115 0.221619 14.7364 0.332419 16.0106 0.498618C17.0632 0.637118 17.9496 0.886418 18.7806 0.969519C19.0853 0.997218 19.1961 1.13572 19.1961 1.30192C19.1961 1.52352 19.113 1.85592 19.0576 2.82542C19.0022 3.73952 19.0299 5.26302 18.9745 5.81702C18.9468 6.23252 18.8914 6.45412 18.6421 6.45412C18.4205 6.45412 18.3651 6.23252 18.3651 5.84472C18.3374 4.98602 17.9773 4.01652 17.2848 3.29632C16.3707 2.32682 14.2101 1.57892 11.6617 1.57892C9.2518 1.57892 7.6729 2.18832 6.4541 3.29632C4.432 5.15222 3.9057 7.78372 3.9057 10.4706C3.9057 17.0632 8.9194 20.3318 12.6312 20.3318C15.0965 20.3318 16.5923 20.0548 17.7003 18.7806C18.1712 18.2543 18.5313 17.451 18.6421 16.9524C18.7252 16.5092 18.7806 16.3984 19.0022 16.3984C19.1961 16.3984 19.2515 16.5923 19.2515 16.8139C19.2515 17.1463 18.9191 19.5562 18.6421 20.498C18.5036 20.9689 18.3928 21.1074 17.9219 21.3013C16.8139 21.7445 14.7087 21.9384 12.9359 21.9384Z" fill="black"/>
</svg>
