<svg width="183" height="103" viewBox="0 0 183 103" fill="none" xmlns="http://www.w3.org/2000/svg">
<g clip-path="url(#clip0_9_101)">
<path d="M43.045 21.3286C45.8442 17.946 48.5914 14.5348 51.3667 11.1867C54.2178 7.74702 57.0704 4.29984 59.8176 0.773133L60.34 0.5L112.841 0.552525L116.017 4.0042C118.951 7.65397 121.826 11.4643 124.906 15.1876C125.949 16.4497 127.032 17.7269 128.091 18.9815C129.585 20.7553 131.207 22.4437 132.545 24.3571L133.212 24.5432L136.541 19.9374C138.514 18.5628 139.148 16.0836 141.279 14.9205C142.137 15.4998 143.983 18.1321 144.802 19.1015C151.181 26.6472 157.33 34.0218 163.716 41.7625C165.256 43.6294 166.795 45.5339 168.212 47.4968C166.893 47.2552 164.751 47.1922 163.195 46.9626L141.138 20.2691L122.267 43.2257L114.752 42.681L105.752 42.7035C100.534 42.2218 95.2876 42.1422 90.0515 42.1587L60.3712 6.92312L28.5225 45.3598C28.0253 46.3488 26.5426 45.759 25.5007 45.909C24.5242 46.0501 23.4585 46.2692 22.4493 46.4283C22.5858 45.795 23.1172 45.2022 23.5134 44.6995C26.4773 40.9401 29.692 37.2994 32.7479 33.6121C36.1363 29.5241 39.7428 25.3205 43.0465 21.3301L43.045 21.3286Z" fill="#B42225"/>
<path d="M122.264 43.2227C135.92 43.9026 149.658 44.9666 163.193 46.961C164.749 47.1907 166.89 47.2537 168.209 47.4953C168.42 47.5343 168.865 47.9815 169.35 48.0761C173.374 48.864 178.235 49.6458 181.943 51.3777C182.341 51.5638 182.596 51.3402 182.467 52.035C173.227 50.1891 163.745 49.1071 154.345 48.2982C122.198 45.5324 89.1446 45.4348 56.9056 46.6924C42.0655 47.2717 27.0799 48.0491 12.3154 49.9325C8.41653 50.4292 4.29501 50.953 0.534135 52.035C0.397592 51.3222 0.684036 51.5698 1.0625 51.3822C6.48415 48.6839 16.3286 47.3963 22.4493 46.4283C23.4585 46.2692 24.5242 46.0501 25.5007 45.909C26.5426 45.759 28.0253 46.3502 28.5225 45.3598C28.7971 45.858 29.4709 45.5969 29.8953 45.5504C49.887 43.3953 69.9945 42.2187 90.0485 42.1557C95.2846 42.1392 100.531 42.2187 105.749 42.7005L114.749 42.678L122.264 43.2227Z" fill="#181817"/>
<path d="M166.271 76.5089C159.806 82.2927 147.636 79.0226 146.825 69.52C145.451 53.4052 169.387 53.7173 169.552 68.1918C169.58 70.7101 168.163 74.8176 166.271 76.5104V76.5089ZM162.306 76.2372C165.931 72.574 165.676 59.4246 159.102 58.7102C151.417 57.8743 150.657 67.9592 152.247 73.3829C153.547 77.8145 158.927 79.6529 162.306 76.2372Z" fill="#181817"/>
<path d="M43.5734 8.51237H31.9568L31.9509 11.5634L43.5749 11.7164L42.5033 12.1321C42.6176 15.0586 42.4024 18.0075 42.5181 20.9324C42.5449 21.5912 42.3326 21.8028 43.0465 21.3286C39.7443 25.3205 36.1362 29.5226 32.7479 33.6106V12.6499L32.4911 12.1021L31.3394 11.6489L31.4255 8.24374L43.5734 8.51237Z" fill="#181817"/>
<path d="M77.1095 78.736L77.2743 77.9151C79.0582 77.3763 79.7484 75.5739 80.5053 74.0252C82.975 68.9797 84.6535 63.2364 86.9021 58.0649C87.2612 57.4676 88.0924 57.5727 88.6875 57.6868C88.9027 58.3591 89.2752 58.9594 89.5691 59.5972C91.7389 64.323 94.2012 72.547 96.8638 76.5179C97.493 77.4544 98.0689 78.0366 99.2933 77.9361V78.736H89.5216C89.4845 77.4919 91.9037 78.0666 92.113 76.9666L90.3423 72.2258L83.2154 72.0922C82.5549 74.9256 79.9517 77.9571 84.7723 77.9361V78.736H77.1125H77.1095ZM83.9753 70.458H89.5201L86.7447 63.5141C86.16 63.3955 86.4152 63.7752 86.2846 64.1039C85.4594 66.1959 84.7441 68.3464 83.9738 70.458H83.9753Z" fill="#181817"/>
<path d="M33.539 78.736C33.579 77.7395 34.8599 77.7425 35.501 77.1152C35.9789 76.647 36.3975 75.5754 36.8516 75.0097L43.8094 57.8083H45.4494L53.6509 76.6905C54.1733 77.5459 54.9747 78.0291 55.9855 77.9376V78.7375H46.2137V77.9376C50.9838 78.0546 47.2957 74.6465 46.9766 72.0938L39.9031 72.0893L38.5836 76.9561C38.7959 77.6389 40.8039 78.0276 41.4629 77.9376V78.7375H33.539V78.736ZM46.2137 70.458L43.5704 63.5171C43.2023 63.5411 43.1623 63.9223 43.0361 64.1744C42.0492 66.1434 41.4985 68.4185 40.6689 70.4595H46.2137V70.458Z" fill="#181817"/>
<path d="M140.967 59.0209L141.274 64.0514C139.752 64.371 139.529 62.1889 138.75 61.1294C135.44 56.6257 129.508 58.8363 127.679 63.5201C126.664 66.1194 126.758 69.9792 127.681 72.589C129.901 78.8605 138.211 79.8945 140.525 73.1743L141.537 73.1278L140.958 77.6149C132.377 81.889 120.268 77.6885 122.331 66.388C123.917 57.6943 133.895 55.3967 140.966 59.0194L140.967 59.0209Z" fill="#181817"/>
<path d="M115.928 63.2469L114.859 63.406C113.939 60.1299 112.305 58.209 108.69 58.7343C106.621 59.0344 106.132 60.6717 106.438 62.5671C106.999 66.0443 115.588 66.3985 116.603 71.2443C118.307 79.3738 108.776 80.825 103.321 77.864L102.459 72.0607L103.77 72.0727C104.182 75.7645 106.263 78.4568 110.227 77.9106C111.783 77.696 113.195 76.5149 113.268 74.8446C113.485 69.7961 103.799 70.1818 103.011 64.428C102.07 57.5457 109.693 55.8423 114.677 58.239C116.703 59.213 115.02 61.4611 115.928 63.2484V63.2469Z" fill="#181817"/>
<path d="M30.3258 59.0224L30.6345 64.0514L29.6119 64.0153C27.3886 56.3826 18.54 57.3506 16.762 64.8422C15.3209 70.9112 18.1957 79.0691 25.6328 77.5504C26.9686 77.2773 28.0654 76.2718 28.895 75.2423C29.5347 74.4484 29.7662 72.9582 30.8972 73.1308L30.3183 77.6164C24.208 80.6479 14.4927 79.6214 12.2219 72.1223C8.78163 60.7543 21.0275 53.98 30.3243 59.0239L30.3258 59.0224Z" fill="#181817"/>
<path d="M72.6229 63.2469L71.5662 63.5186C71.2367 61.365 69.7095 59.0479 67.4476 58.7342C62.446 58.0409 61.4991 62.5776 65.4099 65.0658C68.8071 67.2269 74.0091 67.8512 73.6143 73.4444C73.2003 79.3002 66.287 80.0626 61.8509 78.5439C58.5753 77.4213 60.0877 75.2903 59.1838 72.4824C60.7333 71.1093 60.4884 72.9251 60.9559 74.1107C62.0987 77.0161 63.9792 78.4283 67.1909 77.9181C68.73 77.6734 69.9529 76.1442 69.9945 74.5864C70.1191 69.8817 60.53 70.0993 59.7523 64.383C58.7772 57.214 67.3734 55.8694 72.2296 58.7072L72.6244 63.2484L72.6229 63.2469Z" fill="#181817"/>
<path d="M141.276 14.9205C139.146 16.0836 138.511 18.5613 136.538 19.9374L133.209 24.5432L132.542 24.3571C131.204 22.4452 129.582 20.7553 128.088 18.9815C127.029 17.7254 125.946 16.4497 124.903 15.1876C127.923 14.6504 131.191 14.985 134.287 14.931C135.838 14.904 140.105 14.1296 141.274 14.9205H141.276Z" fill="#181817"/>
<path d="M44.078 8.08167V12.3722L30.7933 12.1666L30.8007 8.08167H44.078Z" fill="#B42225"/>
<path d="M67.0751 33.3434V38.9502H61.5303V33.0763C61.7232 33.0058 61.8464 33.3434 61.9266 33.3434H67.0751Z" fill="#181817"/>
<path d="M60.2094 33.3434H54.6646V38.9502H60.2094V33.3434Z" fill="#181817"/>
<path d="M60.2094 25.8683H54.6646V31.475H60.2094V25.8683Z" fill="#181817"/>
<path d="M67.0751 25.8683H61.5303V31.475H67.0751V25.8683Z" fill="#181817"/>
<path d="M141.276 36.0147H137.579V32.2764C138.33 32.4025 140.791 31.9898 141.16 32.5271L141.276 36.0147Z" fill="#181817"/>
<path d="M145.765 36.0147H142.068V32.2764C142.819 32.4025 145.28 31.9898 145.65 32.5271L145.765 36.0147Z" fill="#181817"/>
<path d="M141.276 37.0818H137.579V40.5529H141.276V37.0818Z" fill="#181817"/>
<path d="M145.765 37.0818H142.068V40.5529H145.765V37.0818Z" fill="#181817"/>
<path d="M42.0625 92.7333C42.0625 89.6403 42.0625 89.0715 42.0224 88.4202C41.9824 87.7283 41.8206 87.4027 41.1572 87.2601C40.9969 87.2196 40.654 87.1986 40.372 87.1986C40.1509 87.1986 40.0307 87.1581 40.0307 87.0155C40.0307 86.8729 40.1717 86.8324 40.473 86.8324C41.5401 86.8324 42.8076 86.8939 43.2291 86.8939C43.9133 86.8939 45.442 86.8324 46.0668 86.8324C47.3343 86.8324 48.6819 86.9539 49.7698 87.7073C50.3338 88.0945 51.1382 89.1315 51.1382 90.4942C51.1382 91.9994 50.5148 93.3831 48.4815 95.0519C50.2729 97.33 51.6606 99.1414 52.8479 100.403C53.9744 101.583 54.7996 101.726 55.1009 101.787C55.322 101.828 55.5031 101.849 55.6649 101.849C55.8266 101.849 55.9068 101.91 55.9068 102.011C55.9068 102.173 55.7658 102.215 55.5239 102.215H53.6123C52.4858 102.215 51.9827 102.113 51.4588 101.828C50.5935 101.359 49.8291 100.403 48.7027 98.8367C47.8982 97.7172 46.9721 96.3335 46.7109 96.0289C46.61 95.9073 46.4898 95.8863 46.3488 95.8863L44.5989 95.8458C44.498 95.8458 44.4387 95.8863 44.4387 96.0078V96.293C44.4387 98.1854 44.4387 99.7927 44.5396 100.647C44.6004 101.236 44.7206 101.684 45.3247 101.766C45.626 101.807 46.0698 101.847 46.3102 101.847C46.4705 101.847 46.5521 101.909 46.5521 102.009C46.5521 102.152 46.4111 102.213 46.1499 102.213C44.9833 102.213 43.4932 102.152 43.192 102.152C42.809 102.152 41.5416 102.213 40.7372 102.213C40.4759 102.213 40.3349 102.152 40.3349 102.009C40.3349 101.907 40.4151 101.847 40.657 101.847C40.9583 101.847 41.2002 101.807 41.3813 101.766C41.7835 101.685 41.8844 101.238 41.9646 100.647C42.0655 99.7927 42.0655 98.1854 42.0655 96.3125V92.7318L42.0625 92.7333ZM44.4372 94.3405C44.4372 94.5641 44.4772 94.6452 44.6182 94.7067C45.0412 94.8493 45.6438 94.9108 46.1469 94.9108C46.9513 94.9108 47.214 94.8298 47.5762 94.5656C48.1802 94.1184 48.7635 93.182 48.7635 91.5132C48.7635 88.6243 46.8727 87.7899 45.6854 87.7899C45.1822 87.7899 44.8201 87.8109 44.6182 87.8709C44.4772 87.9114 44.4372 87.9925 44.4372 88.156V94.3405Z" fill="#B42225"/>
<path d="M58.461 92.7333C58.461 89.6403 58.461 89.0715 58.421 88.4202C58.3809 87.7283 58.2191 87.4027 57.5557 87.2601C57.3954 87.2196 57.0526 87.1986 56.7706 87.1986C56.5494 87.1986 56.4292 87.1581 56.4292 87.0155C56.4292 86.8729 56.5702 86.8324 56.8715 86.8324C57.4147 86.8324 57.998 86.8534 58.5011 86.8534C59.025 86.8744 59.4866 86.8939 59.7686 86.8939C60.4127 86.8939 64.417 86.8939 64.7984 86.8729C65.1813 86.8324 65.5034 86.7919 65.6637 86.7514C65.7646 86.7303 65.8848 86.6703 65.9857 86.6703C66.0867 86.6703 66.106 86.7514 66.106 86.8534C66.106 86.996 66.005 87.2406 65.9457 88.1755C65.9249 88.3796 65.8848 89.2741 65.8447 89.5187C65.824 89.6207 65.7839 89.7423 65.6429 89.7423C65.5019 89.7423 65.4618 89.6403 65.4618 89.4572C65.4618 89.3146 65.4411 88.9694 65.3416 88.7248C65.2006 88.3586 65.0003 88.114 63.994 87.9925C63.6512 87.9519 61.5392 87.9114 61.137 87.9114C61.0361 87.9114 60.996 87.973 60.996 88.1155V93.263C60.996 93.4056 61.0168 93.4866 61.137 93.4866C61.5793 93.4866 63.8931 93.4866 64.3561 93.4461C64.8385 93.4056 65.1413 93.3441 65.3223 93.1415C65.4633 92.9794 65.5435 92.8773 65.6444 92.8773C65.7245 92.8773 65.7854 92.9179 65.7854 93.0394C65.7854 93.161 65.7052 93.4866 65.6251 94.5251C65.6043 94.9318 65.5449 95.7452 65.5449 95.8878C65.5449 96.0499 65.5449 96.275 65.3639 96.275C65.2229 96.275 65.1828 96.1939 65.1828 96.0919C65.1635 95.8878 65.1635 95.6237 65.1027 95.3595C65.0017 94.9528 64.7198 94.6467 63.9762 94.5656C63.5933 94.5251 61.6015 94.5041 61.1192 94.5041C61.0182 94.5041 60.999 94.5852 60.999 94.7082V96.3155C60.999 97.0073 60.9782 98.8787 60.999 99.4685C61.039 100.872 61.3611 101.178 63.4137 101.178C63.9361 101.178 64.7821 101.178 65.3045 100.933C65.8284 100.689 66.0689 100.262 66.2099 99.428C66.2499 99.2044 66.29 99.1234 66.431 99.1234C66.5913 99.1234 66.5913 99.2854 66.5913 99.4895C66.5913 99.9578 66.431 101.341 66.3301 101.748C66.1891 102.278 66.008 102.278 65.2437 102.278C63.7343 102.278 62.6286 102.237 61.7633 102.216C60.898 102.176 60.2747 102.155 59.6706 102.155C59.4495 102.155 59.0072 102.155 58.5234 102.176C58.0603 102.176 57.5379 102.216 57.1357 102.216C56.8745 102.216 56.7335 102.155 56.7335 102.012C56.7335 101.91 56.8136 101.85 57.0555 101.85C57.3568 101.85 57.5987 101.81 57.7798 101.769C58.182 101.688 58.2829 101.241 58.3631 100.65C58.464 99.7957 58.464 98.1884 58.464 96.3155V92.7348L58.461 92.7333Z" fill="#B42225"/>
<path d="M73.5134 99.4475C73.5535 101.034 73.8147 101.564 74.2184 101.706C74.5598 101.828 74.9427 101.849 75.2647 101.849C75.4859 101.849 75.6061 101.889 75.6061 102.011C75.6061 102.173 75.425 102.215 75.143 102.215C73.8355 102.215 73.0296 102.153 72.6482 102.153C72.4671 102.153 71.5217 102.215 70.4753 102.215C70.2141 102.215 70.0331 102.195 70.0331 102.011C70.0331 101.889 70.1533 101.849 70.3551 101.849C70.6163 101.849 70.9785 101.828 71.2605 101.747C71.7844 101.585 71.8645 100.993 71.8838 99.2239L72.0649 87.1791C72.0649 86.7724 72.1257 86.4872 72.3261 86.4872C72.5472 86.4872 72.7283 86.7514 73.0711 87.1176C73.3131 87.3817 76.3704 90.6983 79.3091 93.6487C80.6775 95.0324 83.3935 97.9618 83.7363 98.2875H83.8373L83.6354 89.1525C83.6146 87.9114 83.4336 87.5243 82.9512 87.3217C82.6499 87.2001 82.1661 87.2001 81.8841 87.2001C81.6422 87.2001 81.562 87.1386 81.562 87.017C81.562 86.8549 81.7832 86.8339 82.086 86.8339C83.1323 86.8339 84.0985 86.8954 84.52 86.8954C84.7411 86.8954 85.5055 86.8339 86.4924 86.8339C86.7536 86.8339 86.9555 86.8549 86.9555 87.017C86.9555 87.1386 86.8353 87.2001 86.5934 87.2001C86.3915 87.2001 86.2312 87.2001 85.9893 87.2616C85.4253 87.4237 85.265 87.8514 85.2442 88.9905L85.0231 101.829C85.0231 102.276 84.943 102.46 84.7619 102.46C84.5408 102.46 84.2988 102.236 84.0777 102.012C82.8102 100.792 80.2352 98.1269 78.1425 96.0304C75.9489 93.8333 73.7153 91.2896 73.3531 90.9024H73.2923L73.5134 99.4475Z" fill="#B42225"/>
<path d="M95.3247 87.973L92.3267 88.054C91.1601 88.0945 90.6763 88.1966 90.375 88.6438C90.1732 88.9484 90.0737 89.1931 90.0337 89.3566C89.9936 89.5187 89.9327 89.6012 89.8125 89.6012C89.6715 89.6012 89.6314 89.4992 89.6314 89.2756C89.6314 88.9499 90.0144 87.098 90.0544 86.936C90.1153 86.6718 90.1746 86.5488 90.2964 86.5488C90.4566 86.5488 90.6585 86.7529 91.1616 86.7934C91.7449 86.8549 92.5092 86.8954 93.1741 86.8954H101.143C101.787 86.8954 102.229 86.8339 102.53 86.7934C102.832 86.7319 102.993 86.6913 103.074 86.6913C103.215 86.6913 103.234 86.8129 103.234 87.119C103.234 87.5467 103.173 88.9499 103.173 89.4797C103.152 89.6838 103.112 89.8053 102.992 89.8053C102.832 89.8053 102.79 89.7033 102.771 89.3986L102.751 89.175C102.711 88.6453 102.168 88.0765 100.377 88.036L97.8418 87.9745V96.3155C97.8418 98.1869 97.8418 99.7942 97.9428 100.669C98.0036 101.239 98.1238 101.687 98.7279 101.768C99.0099 101.808 99.4522 101.849 99.7534 101.849C99.9746 101.849 100.075 101.91 100.075 102.011C100.075 102.153 99.9152 102.215 99.6926 102.215C98.3643 102.215 97.0968 102.153 96.5328 102.153C96.0697 102.153 94.8023 102.215 93.9978 102.215C93.7366 102.215 93.5956 102.153 93.5956 102.011C93.5956 101.909 93.6758 101.849 93.9177 101.849C94.219 101.849 94.4609 101.808 94.642 101.768C95.0442 101.687 95.1644 101.239 95.2253 100.648C95.3262 99.7942 95.3262 98.1869 95.3262 96.314V87.973H95.3247Z" fill="#B42225"/>
<path d="M107.74 96.9053C107.639 96.9053 107.599 96.9458 107.559 97.0674L106.472 99.9773C106.27 100.486 106.171 100.974 106.171 101.218C106.171 101.585 106.352 101.849 106.975 101.849H107.277C107.519 101.849 107.578 101.889 107.578 102.011C107.578 102.173 107.458 102.215 107.237 102.215C106.592 102.215 105.727 102.153 105.104 102.153C104.883 102.153 103.776 102.215 102.729 102.215C102.468 102.215 102.346 102.174 102.346 102.011C102.346 101.889 102.426 101.849 102.588 101.849C102.769 101.849 103.051 101.828 103.212 101.808C104.138 101.687 104.519 100.995 104.921 99.9773L109.972 87.2001C110.214 86.6103 110.334 86.3867 110.536 86.3867C110.717 86.3867 110.837 86.5698 111.039 87.038C111.521 88.1576 114.742 96.4581 116.029 99.5511C116.793 101.382 117.376 101.667 117.799 101.769C118.101 101.831 118.403 101.85 118.644 101.85C118.804 101.85 118.905 101.87 118.905 102.012C118.905 102.174 118.724 102.216 117.979 102.216C117.234 102.216 115.785 102.216 114.177 102.176C113.814 102.155 113.572 102.155 113.572 102.014C113.572 101.892 113.653 101.852 113.854 101.831C113.995 101.79 114.136 101.607 114.036 101.362L112.425 97.0494C112.385 96.9473 112.324 96.9068 112.223 96.9068H107.737L107.74 96.9053ZM111.845 95.8878C111.946 95.8878 111.965 95.8263 111.946 95.7662L110.135 90.7403C110.116 90.6593 110.095 90.5572 110.034 90.5572C109.973 90.5572 109.933 90.6593 109.914 90.7403L108.063 95.7452C108.042 95.8263 108.063 95.8878 108.143 95.8878H111.846H111.845Z" fill="#B42225"/>
<path d="M124.744 96.314C124.744 98.9178 124.744 100.322 125.167 100.689C125.508 100.993 126.032 101.136 127.601 101.136C128.668 101.136 129.452 101.115 129.955 100.566C130.197 100.301 130.437 99.7312 130.477 99.3455C130.498 99.1624 130.538 99.0408 130.698 99.0408C130.839 99.0408 130.859 99.1429 130.859 99.386C130.859 99.6096 130.718 101.136 130.557 101.726C130.437 102.173 130.336 102.275 129.29 102.275C127.841 102.275 126.795 102.234 125.89 102.213C124.984 102.173 124.26 102.152 123.435 102.152C123.214 102.152 122.771 102.152 122.287 102.173C121.824 102.173 121.302 102.213 120.9 102.213C120.639 102.213 120.498 102.152 120.498 102.009C120.498 101.907 120.578 101.847 120.82 101.847C121.121 101.847 121.363 101.807 121.544 101.766C121.946 101.685 122.047 101.238 122.127 100.647C122.228 99.7927 122.228 98.1854 122.228 96.3125V92.7318C122.228 89.6388 122.228 89.07 122.188 88.4187C122.148 87.7268 121.986 87.4012 121.323 87.2586C121.162 87.2181 120.921 87.1971 120.659 87.1971C120.438 87.1971 120.318 87.1566 120.318 87.014C120.318 86.8714 120.459 86.8309 120.76 86.8309C121.706 86.8309 122.973 86.8924 123.516 86.8924C123.999 86.8924 125.468 86.8309 126.253 86.8309C126.535 86.8309 126.676 86.8714 126.676 87.014C126.676 87.1566 126.556 87.1971 126.314 87.1971C126.093 87.1971 125.771 87.2181 125.529 87.2586C124.986 87.3607 124.824 87.7058 124.784 88.4187C124.744 89.07 124.744 89.6388 124.744 92.7318V96.3125V96.314Z" fill="#B42225"/>
<path d="M134.502 101.972C134.18 101.829 134.119 101.727 134.119 101.28C134.119 100.16 134.199 98.9403 134.22 98.6146C134.239 98.31 134.3 98.0849 134.462 98.0849C134.643 98.0849 134.664 98.268 134.664 98.43C134.664 98.6942 134.744 99.1219 134.845 99.4685C135.287 100.974 136.475 101.523 137.723 101.523C139.533 101.523 140.42 100.282 140.42 99.2029C140.42 98.2064 140.118 97.27 138.447 95.9478L137.521 95.2155C135.308 93.4656 134.544 92.0414 134.544 90.3936C134.544 88.156 136.394 86.5488 139.192 86.5488C140.5 86.5488 141.346 86.7529 141.868 86.8939C142.049 86.9345 142.15 86.996 142.15 87.1386C142.15 87.4027 142.07 87.9925 142.07 89.5802C142.07 90.0275 142.009 90.191 141.849 90.191C141.708 90.191 141.647 90.0695 141.647 89.8249C141.647 89.6418 141.546 89.0115 141.124 88.4817C140.823 88.0945 140.238 87.4852 138.931 87.4852C137.442 87.4852 136.537 88.3601 136.537 89.5802C136.537 90.5167 137 91.228 138.67 92.5097L139.234 92.9374C141.668 94.7893 142.533 96.1925 142.533 98.1254C142.533 99.305 142.091 100.71 140.642 101.666C139.636 102.317 138.509 102.5 137.442 102.5C136.276 102.5 135.37 102.357 134.505 101.972H134.502Z" fill="#B42225"/>
</g>
<defs>
<clipPath id="clip0_9_101">
<rect width="182" height="102" fill="white" transform="translate(0.5 0.5)"/>
</clipPath>
</defs>
</svg>
